<svg width="85" height="85" viewBox="0 0 85 85" fill="none" xmlns="http://www.w3.org/2000/svg">
<path d="M14.1667 48.875C13.3843 48.875 12.75 49.5093 12.75 50.2917V52.8414C12.7708 59.9067 9.96509 66.6864 4.95833 71.6703L3.25805 73.3706C2.89005 73.7262 2.74202 74.2533 2.87207 74.7485C3.00142 75.2438 3.38879 75.6305 3.88407 75.7598C4.37935 75.8899 4.90576 75.7419 5.26131 75.3739L6.96159 73.6736C12.5017 68.1598 15.6062 60.6586 15.5833 52.8414V50.2917C15.5833 49.5093 14.949 48.875 14.1667 48.875Z" fill="#2C237D"/>
<path d="M70.8333 48.875C70.051 48.875 69.4167 49.5093 69.4167 50.2917V52.8414C69.3952 60.6593 72.5025 68.1605 78.0453 73.6736L79.7456 75.3739C80.3018 75.9106 81.1851 75.903 81.7316 75.3566C82.2781 74.8101 82.2857 73.9268 81.7489 73.3706L80.0486 71.6703C75.0391 66.6878 72.2306 59.9074 72.25 52.8414V50.2917C72.25 49.5093 71.6157 48.875 70.8333 48.875Z" fill="#2C237D"/>
<path d="M22.2517 75.3766C27.0682 70.5864 29.7687 64.0675 29.75 57.2747V53.125C29.75 52.3426 29.1157 51.7083 28.3334 51.7083C27.551 51.7083 26.9167 52.3426 26.9167 53.125V57.2747C26.9333 63.3163 24.5323 69.113 20.2484 73.3734C19.8804 73.7289 19.7324 74.256 19.8624 74.7513C19.9918 75.2466 20.3785 75.6332 20.8737 75.7626C21.369 75.8926 21.8961 75.7446 22.2517 75.3766Z" fill="#2C237D"/>
<path d="M56.6666 51.7083C55.8843 51.7083 55.25 52.3426 55.25 53.125V57.2747C55.2313 64.0675 57.9318 70.5864 62.7483 75.3766C63.3045 75.9134 64.1878 75.9058 64.7343 75.3593C65.2808 74.8128 65.2884 73.9295 64.7516 73.3734C60.4677 69.113 58.0667 63.3163 58.0833 57.2747V53.125C58.0833 52.3426 57.449 51.7083 56.6666 51.7083Z" fill="#2C237D"/>
<path d="M42.5 74.375V51.7084C42.5 50.926 41.8656 50.2917 41.0833 50.2917C40.3009 50.2917 39.6666 50.926 39.6666 51.7084V74.375C39.6666 75.1574 40.3009 75.7917 41.0833 75.7917C41.8656 75.7917 42.5 75.1574 42.5 74.375Z" fill="#2C237D"/>
<path d="M80.75 9.20831H4.25C1.90295 9.20831 0 11.1113 0 13.4583V41.7916C0 44.1387 1.90295 46.0416 4.25 46.0416H80.75C83.097 46.0416 85 44.1387 85 41.7916V13.4583C85 11.1113 83.097 9.20831 80.75 9.20831ZM9.91667 43.2083V40.375H75.0833V43.2083H9.91667ZM75.0833 37.5416H9.91667V34.7083H75.0833V37.5416ZM82.1667 41.7916C82.1667 42.574 81.5323 43.2083 80.75 43.2083H77.9167V31.875H7.08333V43.2083H4.25C3.46765 43.2083 2.83333 42.574 2.83333 41.7916V13.4583C2.83333 12.676 3.46765 12.0416 4.25 12.0416H80.75C81.5323 12.0416 82.1667 12.676 82.1667 13.4583V41.7916Z" fill="#2C237D"/>
<path d="M28.3334 19.125H56.6667V21.9583H28.3334V19.125Z" fill="#2C237D"/>
<path d="M76.5 14.875H79.3333V17.7083H76.5V14.875Z" fill="#2C237D"/>
<path d="M70.8333 14.875H73.6666V17.7083H70.8333V14.875Z" fill="#2C237D"/>
</svg>
